Coordinates
version=1
nRows=14
nColumns=42
inDegrees=yes

Units are S.I. units (second, meters, Newtons, ...)
If the header above contains a line with 'inDegrees', this indicates whether rotational values are in degrees (yes) or radians (no).

endheader
time	pelvis_tilt	pelvis_list	pelvis_rotation	pelvis_tx	pelvis_ty	pelvis_tz	hip_flexion_r	hip_adduction_r	hip_rotation_r	knee_angle_r	knee_adduction_r	knee_angle_r_beta	ankle_angle_r	subtalar_angle_r	mtp_angle_r	hip_flexion_l	hip_adduction_l	hip_rotation_l	knee_angle_l	knee_adduction_l	knee_angle_l_beta	ankle_angle_l	subtalar_angle_l	mtp_angle_l	lumbar_extension	lumbar_bending	lumbar_rotation	arm_flex_r	arm_add_r	arm_rot_r	elbow_flex_r	pro_sup_r	wrist_flex_r	wrist_dev_r	arm_flex_l	arm_add_l	arm_rot_l	elbow_flex_l	pro_sup_l	wrist_flex_l	wrist_dev_l
      0.56000000	     24.96016769	     -2.98300871	    -13.05497901	     -0.41077505	      0.94060785	      0.01167488	    -27.90640004	      1.28000965	    -23.68138634	     23.09268164	    -13.14643219	      0.40304333	     24.93037551	     37.19852921	     -9.30104333	     -2.79217064	      2.87992106	     -8.58741801	     24.97356967	     -2.97086452	      0.43587102	      6.22596488	    -17.60741672	     -9.30104333	    -37.69936475	     -2.41510575	      7.25745680	     21.67385375	    -11.67220249	      1.16869852	     39.77739488	     90.00000001	      0.00000000	      0.00000000	     -5.08493702	    -18.99227564	     10.26666952	     63.03107939	     90.00000001	      0.00000000	      0.00000000
      0.57000000	     24.93520147	     -2.96031274	    -12.94999545	     -0.40463119	      0.93992691	      0.01130024	    -28.22393369	      1.30692894	    -23.72027531	     23.25537581	    -13.26279188	      0.40588288	     24.90800044	     37.13777202	     -9.29714085	     -3.04282570	      2.95890125	     -8.72725226	     25.06023840	     -3.00268531	      0.43738367	      6.09410020	    -17.53235071	     -9.29714085	    -37.51897347	     -2.45463983	      7.09241325	     21.20049209	    -11.79623400	      1.12992453	     39.60501194	     90.00000001	      0.00000000	      0.00000000	     -5.19386640	    -19.06894380	     10.24408377	     62.94714584	     90.00000001	      0.00000000	      0.00000000
      0.58000000	     24.97468322	     -2.86520908	    -12.81960047	     -0.39825084	      0.93950080	      0.01098356	    -28.59236067	      1.22880951	    -23.96323950	     23.44317396	    -13.33946535	      0.40916057	     24.86591295	     36.96087070	     -9.29135852	     -3.30466247	      3.09590223	     -8.95279158	     25.24257466	     -3.05757676	      0.44056604	      5.78990498	    -17.33871465	     -9.29135852	    -37.36226011	     -2.59807633	      6.94337800	     20.62700860	    -11.91202899	      1.07454157	     39.34028425	     90.00000001	      0.00000000	      0.00000000	     -5.29098408	    -19.18761915	     10.19650366	     62.78120111	     90.00000001	      0.00000000	      0.00000000
      0.59000000	     24.98596476	     -2.72478501	    -12.62515715	     -0.39177717	      0.93921229	      0.01063167	    -28.90238649	      1.16309055	    -24.23171380	     23.68288659	    -13.45721223	      0.41334435	     24.79669509	     36.78718264	     -9.28670879	     -3.46774439	      3.23752004	     -9.03111221	     25.52312212	     -3.04479629	      0.44546252	      5.51099165	    -17.13959160	     -9.28670879	    -37.17380183	     -2.76066654	      6.70502014	     20.05030574	    -12.01718320	      1.00965607	     39.05224485	     90.00000001	      0.00000000	      0.00000000	     -5.34890421	    -19.26761005	     10.15828997	     62.60520667	     90.00000001	      0.00000000	      0.00000000
      0.60000000	     24.94900562	     -2.46266683	    -12.34099683	     -0.38529995	      0.93894261	      0.01020881	    -29.01975955	      0.91071314	    -25.22617217	     24.16520524	    -13.59356336	      0.42176240	     24.58819447	     36.27029946	     -9.27110696	     -3.38010484	      3.46149031	     -9.01352572	     26.19668339	     -3.03201276	      0.45721838	      5.02696333	    -16.76331754	     -9.27110696	    -36.90630146	     -2.99109586	      6.42751318	     19.64446961	    -12.03095356	      0.85651255	     38.48384425	     90.00000001	      0.00000000	      0.00000000	     -5.18686119	    -19.35741474	     10.08109393	     62.07685125	     90.00000001	      0.00000000	      0.00000000
      0.61000000	     24.88064425	     -2.32248322	    -12.09883466	     -0.37888255	      0.93880118	      0.00986481	    -29.11703507	      0.83720789	    -25.80743493	     24.64444078	    -13.78554616	      0.43012663	     24.38143007	     35.95941395	     -9.25364232	     -3.30610757	      3.54692538	     -8.55218124	     26.94336946	     -2.80888793	      0.47025051	      5.02259781	    -16.70386027	     -9.25364232	    -36.63667900	     -3.12762533	      6.15389693	     19.18163394	    -12.02306822	      0.64250800	     37.81603484	     90.00000001	      0.00000000	      0.00000000	     -5.09282338	    -19.39132607	     10.01984995	     61.52671364	     90.00000001	      0.00000000	      0.00000000
      0.62000000	     24.82695016	     -2.22787068	    -11.84522930	     -0.37267347	      0.93876731	      0.00949077	    -29.20320214	      0.82789601	    -26.27983173	     25.14863391	    -14.02640976	      0.43892646	     24.06308790	     35.57437039	     -9.22758178	     -3.23431019	      3.58670944	     -7.73477627	     27.77376938	     -2.40474510	      0.48474372	      5.23408888	    -16.96765677	     -9.22758178	    -36.41382052	     -3.20095552	      5.91157899	     18.80879435	    -11.99426479	      0.28441196	     36.94387477	     90.00000001	      0.00000000	      0.00000000	     -4.95132571	    -19.38132551	      9.95201339	     60.85398032	     90.00000001	      0.00000000	      0.00000000
      0.63000000	     24.87060446	     -2.15097272	    -11.75813095	     -0.36653646	      0.93902209	      0.00915119	    -29.40402558	      0.78774523	    -26.20451545	     25.57592904	    -14.28956886	      0.44638417	     23.91103604	     35.53296365	     -9.22394198	     -3.36548773	      3.70265620	     -7.27029325	     28.35637099	     -2.18505592	      0.49491204	      5.21936808	    -16.96585150	     -9.22394198	    -36.31245697	     -3.33052801	      5.74569319	     18.22178317	    -12.09447594	      0.19404188	     36.63732131	     90.00000001	      0.00000000	      0.00000000	     -5.02856127	    -19.38256357	      9.93619489	     60.73016041	     90.00000001	      0.00000000	      0.00000000
      0.64000000	     24.76340382	     -2.16111588	    -11.47315715	     -0.36087249	      0.93903745	      0.00855940	    -29.32167980	      0.75772234	    -26.72820149	     26.35969576	    -14.37364804	      0.46006348	     23.22398621	     34.81590256	     -9.20004818	     -3.18967104	      3.61047094	     -5.62791331	     29.48337503	     -1.31403939	      0.51458197	      5.79439147	    -17.73258585	     -9.20004818	    -36.11159532	     -3.26881835	      5.63905747	     18.00900807	    -12.12244545	     -0.18227520	     35.76449340	     90.00000001	      0.00000000	      0.00000000	     -4.65299723	    -19.33670596	      9.87202883	     60.15747866	     90.00000001	      0.00000000	      0.00000000
      0.65000000	     24.81340394	     -2.14160546	    -11.40538887	     -0.35508168	      0.93942743	      0.00809558	    -29.45745296	      0.72471754	    -26.54314190	     26.90451058	    -14.65234786	      0.46957229	     22.99603655	     34.78105505	     -9.19602672	     -3.37481660	      3.70234647	     -5.09870466	     30.00407023	     -1.06017065	      0.52366981	      5.81852501	    -17.79882152	     -9.19602672	    -36.07049867	     -3.35676421	      5.48572400	     17.48413516	    -12.25146375	     -0.29004637	     35.45518472	     90.00000001	      0.00000000	      0.00000000	     -4.69471155	    -19.28674299	      9.87124859	     60.04894835	     90.00000001	      0.00000000	      0.00000000
      0.66000000	     24.76260107	     -2.17832463	    -11.14590608	     -0.34954513	      0.93977897	      0.00731663	    -29.43325836	      0.66803683	    -26.60457365	     27.71220117	    -14.59014639	      0.48366915	     21.88695975	     33.82522605	     -9.16403911	     -3.51961728	      3.65642683	     -3.14903566	     30.55976283	     -0.05168846	      0.53336848	      6.59507564	    -18.44037335	     -9.16403911	    -35.94028589	     -3.25841368	      5.38924714	     17.33373919	    -12.28759552	     -0.85543189	     34.43972980	     90.00000001	      0.00000000	      0.00000000	     -4.27925942	    -19.15952653	      9.83314721	     59.44704246	     90.00000001	      0.00000000	      0.00000000
      0.67000000	     24.74666481	     -2.20819239	    -10.97699091	     -0.34386970	      0.94031691	      0.00651241	    -29.49015406	      0.64949506	    -25.84944415	     28.52231051	    -14.40540778	      0.49780823	     21.12195491	     32.25666012	     -8.85619324	     -3.75265687	      3.68285666	     -2.18651664	     30.90373112	      0.44008868	      0.53937186	      6.86312458	    -18.64165040	     -8.85619324	    -35.82563733	     -3.19284520	      5.31756811	     17.47797913	    -11.52294395	     -5.55120187	     32.81288447	     90.00000001	      0.00000000	      0.00000000	     -4.06367400	    -18.93636427	      9.65262797	     59.00684360	     90.00000001	      0.00000000	      0.00000000
      0.68000000	     24.80277847	     -2.17408452	    -10.75118083	     -0.33809450	      0.94086739	      0.00552720	    -29.53173341	      0.47019064	    -25.91360590	     29.34069597	    -14.47523274	      0.51209175	     20.33520524	     32.09150942	     -8.83288957	     -4.14652591	      3.82622846	     -1.21742626	     31.04066485	      0.85888226	      0.54176180	      7.32278433	    -18.75333651	     -8.83288957	    -35.77329854	     -3.16768652	      5.13795223	     16.98599280	    -11.69632086	     -5.70088453	     32.50737357	     90.00000001	      0.00000000	      0.00000000	     -3.93301859	    -18.85767192	      9.70854649	     58.88591370	     90.00000001	      0.00000000	      0.00000000
      0.69000000	     24.86877469	     -2.15880705	    -10.51808182	     -0.33227091	      0.94142522	      0.00442562	    -29.56386350	      0.28606802	    -25.83060873	     30.25731776	    -14.46175982	      0.52808982	     19.72745747	     31.96576985	     -8.82271004	     -4.55487865	      3.95360503	     -0.69796649	     31.16046252	      1.07336168	      0.54385267	      7.58032319	    -18.80158922	     -8.82271004	    -35.72299926	     -3.11720213	      4.99031968	     16.44389807	    -11.90803957	     -5.82597699	     32.28720994	     90.00000001	      0.00000000	      0.00000000	     -3.85000565	    -18.74496787	      9.74007924	     58.87634687	     90.00000001	      0.00000000	      0.00000000
